<svg width="689" height="926" viewBox="0 0 689 926" fill="none" xmlns="http://www.w3.org/2000/svg">
<g id = "p">
<path fill-rule="evenodd" clip-rule="evenodd" d="M216.913 262.576C219.475 264.012 221.283 264.012 220.602 262.576C220.288 261.914 218.915 261.412 217.55 261.457C215.334 261.533 215.266 261.653 216.913 262.576ZM461.805 749.887C454.834 750.836 431.342 756.503 430.653 757.401C430.504 757.597 430.489 777.932 430.623 802.592L430.864 847.428L438.703 839.905C443.014 835.769 451.002 826.547 456.455 819.413L466.369 806.444V790.238V774.033L469.366 773.345C471.015 772.967 475.007 772.289 478.24 771.837L484.116 771.015L487.099 762.467C488.74 757.765 490.377 752.7 490.737 751.212L491.393 748.506L480.494 748.666C474.501 748.754 466.091 749.303 461.805 749.887Z" fill="#4B9A34"/>
<path fill-rule="evenodd" clip-rule="evenodd" d="M466.247 744.457C453.135 745.573 434.634 750.035 428.592 753.539L426.714 754.629L426.928 830.219L427.142 905.809L446.487 906.115L465.831 906.421V840.96V775.501L468.952 774.793C481.593 771.929 497.574 776.569 505.791 785.492C515.829 796.391 516.223 821.893 506.539 833.887C500.547 841.308 491.089 845.872 481.624 845.906L477.032 845.923L473.396 856.791C471.396 862.768 470.031 868.03 470.362 868.483C471.417 869.928 500.026 869.334 505.353 867.756C530.185 860.4 545.025 846.648 551.073 825.391C553.042 818.472 553.678 804.438 552.373 796.749C547.64 768.876 523.779 748.135 492.858 745.018C479.759 743.698 476.09 743.62 466.247 744.457ZM458.386 749.135C452.096 750.035 430.901 755.41 430.28 756.261C430.145 756.447 430.131 775.732 430.252 799.118L430.47 841.638L437.542 834.504C441.432 830.581 448.639 821.836 453.559 815.071L462.503 802.771V787.402V772.034L465.207 771.382C466.695 771.023 470.297 770.38 473.213 769.951L478.515 769.172L481.207 761.065C482.687 756.607 484.164 751.803 484.489 750.392L485.081 747.826L475.248 747.977C469.84 748.061 462.252 748.582 458.386 749.135Z" fill="#268339"/>
</g>
<g id = "c">
<path fill-rule="evenodd" clip-rule="evenodd" d="M346.48 755.179C309.643 759.274 281.865 772.53 271.329 791.041C269.547 794.171 269.552 794.191 272.24 796.255C278.9 801.367 302.449 811.872 304.595 810.689C305.138 810.389 305.583 809.45 305.584 808.601C305.586 804.88 311.983 795.233 317.839 790.12C329.734 779.735 347.304 774.516 371.018 774.326C378.61 774.266 387.863 774.55 391.581 774.959L398.342 775.702L403.697 768.253C406.671 764.116 408.663 760.457 408.176 760.023C407.694 759.592 403.393 758.364 398.617 757.292C391.554 755.707 386.213 755.291 369.996 755.062C359.03 754.907 348.448 754.96 346.48 755.179Z" fill="#79B62B"/>
<path fill-rule="evenodd" clip-rule="evenodd" d="M347.823 752.292C311.68 754.39 281.127 768.193 267.704 788.486C256.558 805.336 256.846 828.756 268.409 846.03C272.301 851.844 281.535 860.288 288.955 864.816C299.157 871.043 313.762 876.007 331.003 879.105C343.504 881.352 374.835 881.358 387.398 879.117C398.606 877.117 407.587 874.894 408.224 873.962C408.493 873.567 406.641 868.555 404.107 862.822C399.992 853.513 399.277 852.451 397.407 852.874C389.277 854.715 378.781 855.386 364.642 854.971C347.122 854.457 341.046 853.335 329.83 848.546C320.519 844.571 314.48 839.427 310.474 832.061C307.462 826.522 307.258 825.547 307.258 816.703C307.258 807.841 307.458 806.893 310.504 801.291C316.07 791.055 327.953 783.354 344.36 779.351C351.411 777.631 379.475 777.08 389.872 778.458L395.313 779.179L401.455 770.343C409.654 758.55 409.54 758.988 404.823 757.278C393.361 753.127 369.463 751.036 347.823 752.292ZM343.371 755.463C307.724 759.483 280.844 772.499 270.648 790.675C268.925 793.748 268.928 793.768 271.53 795.794C277.974 800.813 300.763 811.128 302.84 809.966C303.365 809.672 303.795 808.75 303.796 807.917C303.798 804.263 309.989 794.791 315.655 789.77C327.166 779.573 344.168 774.45 367.116 774.262C374.462 774.203 383.416 774.483 387.014 774.884L393.556 775.614L398.738 768.3C401.617 764.238 403.544 760.645 403.073 760.218C402.606 759.796 398.444 758.59 393.822 757.537C386.988 755.981 381.819 755.573 366.126 755.348C355.515 755.196 345.275 755.248 343.371 755.463Z" fill="#348B36"/>
</g>
<g id = "o">
<path fill-rule="evenodd" clip-rule="evenodd" d="M190.403 751.677C189.9 752.649 195.591 768.746 199.238 776.671C207.27 794.118 219.593 812.955 230.39 824.289C233.93 828.005 237.65 831.913 238.658 832.975C239.665 834.035 240.731 834.614 241.026 834.262C241.322 833.909 242.044 830.657 242.631 827.036C246.845 801.044 237.577 777.071 217.826 762.872C210.142 757.349 191.423 749.707 190.403 751.677Z" fill="#308C3A"/>
<path fill-rule="evenodd" clip-rule="evenodd" d="M162.198 746.026C131.346 748.779 105.791 768.063 98.651 793.977C93.8153 811.532 94.5876 827.584 101.051 843.82C114.508 877.625 156.559 894.413 197.288 882.239C227.829 873.111 246.205 848.071 246.205 815.583C246.205 797.252 241.701 784.36 230.723 771.276C225.104 764.578 222.217 762.031 215.62 757.952C200.007 748.299 181.934 744.264 162.198 746.026ZM190.403 751.677C189.9 752.649 195.591 768.746 199.238 776.671C207.27 794.118 219.593 812.955 230.39 824.289C233.929 828.005 237.65 831.913 238.658 832.975C239.665 834.035 240.731 834.614 241.026 834.262C241.322 833.909 242.044 830.657 242.631 827.036C246.845 801.044 237.577 777.071 217.826 762.872C210.142 757.349 191.423 749.707 190.403 751.677ZM160.566 772.008C153.713 774.232 148.786 777.734 144.098 783.718C137.43 792.228 134.459 802.053 134.477 815.544C134.493 828.796 137.542 838.762 144.268 847.549C159.208 867.063 188.361 864.778 200.808 843.116C212.614 822.568 208.712 791.18 192.718 778.043C184.447 771.249 170.798 768.687 160.566 772.008Z" fill="#24823A"/>
</g>
<g id = "etoile"> 
<path fill-rule="evenodd" clip-rule="evenodd" d="M328.146 197.75C325.978 201.463 320.547 211.883 316.076 220.908L307.948 237.315L314.724 239.692C318.451 241 324.087 242.343 327.25 242.677L333 243.285V217.142C333 202.764 332.795 191 332.544 191C332.293 191 330.314 194.037 328.146 197.75ZM333.523 314.25C333.14 325.938 332.977 337.908 333.163 340.852L333.5 346.203L347.5 335.766C355.2 330.026 365.613 321.673 370.64 317.205C379.397 309.421 389.97 296.879 389.99 294.25C389.998 293.28 383.761 293 362.111 293H334.221L333.523 314.25ZM386.951 325.092C383.227 332.051 369.461 371.794 370.437 372.77C371.223 373.557 420 356.862 420 355.807C420 355.242 418.538 352.017 416.75 348.64C412.557 340.718 403.225 331.477 394.716 326.822C388.266 323.292 387.952 323.222 386.951 325.092ZM277.929 324.5C277.693 325.05 274.871 326.85 271.658 328.5C268.446 330.15 263.244 334.043 260.1 337.152C254.759 342.432 248 353.046 248 356.153C248 357.057 256.331 360.297 272.412 365.648L296.824 373.77L295.396 368.961C289.655 349.628 278.897 322.244 277.929 324.5ZM149 326.555C149 328.492 187.937 367 189.895 367C190.376 367 195.359 352.252 197.72 343.843C198.182 342.196 196.656 341.635 153.25 327.505C150.912 326.744 149 326.316 149 326.555ZM492.25 334.149L468 342.081V358.139V374.198L474.194 368.849C490.048 355.159 517.928 327.551 516.884 326.576C516.673 326.379 505.587 329.787 492.25 334.149ZM267.5 417.653C265.85 417.848 262.025 418.291 259 418.637C255.975 418.984 254.063 419.469 254.75 419.717C255.438 419.964 256 421.622 256 423.402C256 432.557 262.862 446.83 271.357 455.344C276.24 460.238 277.43 460.989 278.512 459.857C279.226 459.111 286.216 449.725 294.046 439C301.876 428.275 308.724 418.938 309.263 418.25C310.042 417.258 306.144 417.031 290.372 417.15C279.443 417.232 269.15 417.459 267.5 417.653ZM364.063 428.118C371.404 438.198 386.607 458.658 387.753 460C388.702 461.111 400.896 446.911 403.416 441.761C408.669 431.024 410.509 419.85 407.25 418.477C406.288 418.071 394.312 417.514 380.637 417.238L355.774 416.736L364.063 428.118ZM411 509.252V524.837L414.25 526.83C419.525 530.066 446.171 543.162 446.603 542.731C446.897 542.437 413.658 496.518 411.388 494.083C411.175 493.854 411 500.68 411 509.252ZM245.624 506.675C236.709 518.24 219.195 542.508 219.521 542.844C220.386 543.735 271 517.837 271 516.503C271 516.314 266.838 513.131 261.75 509.43C256.662 505.728 251.963 502.284 251.307 501.775C250.475 501.13 248.757 502.61 245.624 506.675Z" fill="#ABD221"/>
<path fill-rule="evenodd" clip-rule="evenodd" d="M333.022 216.392L333 243.285L327.07 242.665C323.809 242.324 318.747 241.135 315.82 240.023C312.894 238.911 309.797 238.001 308.938 238.001C307.141 238 296.728 261.566 291.646 277.137C288.564 286.579 288.429 286.786 285 287.376C283.075 287.707 279.813 287.983 277.75 287.989C274.646 287.998 274 288.351 274 290.04C274 298.462 293.814 318.434 322.5 338.928L332.5 346.072L333.122 327.786C333.465 317.729 333.802 305.787 333.872 301.25L334 293H362C381.218 293 390 293.336 390 294.07C390 295.661 384.627 303.174 378.716 309.849C374.925 314.13 375.368 313.794 380.337 308.619C387.416 301.248 391.301 295.494 392.401 290.75C392.999 288.167 392.833 288 389.659 288C387.8 288 384.271 287.725 381.816 287.388L377.352 286.776L374.041 276.638C372.22 271.062 367.785 259.525 364.185 251C357.127 234.282 338.242 196.08 335.019 192L333.044 189.5L333.022 216.392ZM400.185 303.847C397.608 306.513 393.793 311.89 391.707 315.796L387.914 322.898L390.207 324.301C391.468 325.072 394.75 326.973 397.5 328.525C404.302 332.363 412.821 341.276 416.75 348.667C418.538 352.029 420 355.245 420 355.814C420 356.383 408.75 360.588 395 365.159C381.25 369.73 370.005 373.702 370.01 373.985C370.032 375.046 395.395 392.754 406.18 399.238C412.345 402.943 420.575 407.302 424.471 408.923C432.299 412.183 441.364 413.838 442.38 412.195C442.729 411.629 442.344 408.316 441.523 404.833C440.701 401.35 440.023 398.179 440.015 397.787C440.007 397.395 442.587 395.309 445.75 393.15C454.662 387.067 475.791 369.06 487.299 357.739C495.525 349.646 495.9 349.177 489.091 355.5C484.352 359.9 477.668 365.907 474.238 368.849L468 374.198V358.147V342.096L491.13 334.522C503.851 330.356 515.09 326.821 516.104 326.666C522.412 325.704 514.301 323.467 490 319.469C467.221 315.722 449.985 313.941 430.28 313.298L412.061 312.704L409.372 305.852C407.894 302.083 406.276 299 405.777 299C405.278 299 402.762 301.181 400.185 303.847ZM256.671 307.012L253.843 314H240.42C212.957 314 147.068 322.829 148.302 326.344C148.525 326.98 149.393 327.38 150.231 327.234C151.069 327.088 162.204 330.383 174.975 334.556C194.287 340.866 198.117 342.426 197.725 343.822C195.221 352.751 190.359 367 189.816 367C189.44 367 185.165 363.352 180.316 358.894C173.551 352.673 174.024 353.249 182.351 361.367C193.814 372.542 211.964 388.176 220.75 394.443C223.637 396.503 226 398.726 226 399.384C226 400.042 225.325 403.171 224.5 406.339C223.675 409.506 223 412.362 223 412.686C223 413.009 225.931 413.039 229.514 412.751C240.503 411.869 261.084 400.649 287.25 381.277C292.063 377.714 296 374.496 296 374.126C296 373.756 285.2 369.874 272 365.5C256.065 360.219 248 357.082 248 356.163C248 353.036 254.76 342.43 260.169 337.072C263.35 333.919 268.633 330.026 271.908 328.42C275.182 326.814 278.083 324.992 278.353 324.372C278.623 323.751 276.624 319.476 273.91 314.872C269.015 306.567 263.196 299.989 260.765 300.012C260.069 300.019 258.227 303.169 256.671 307.012ZM367.946 319.75L364.5 323.5L368.25 320.054C370.313 318.158 372 316.471 372 316.304C372 315.54 371.154 316.26 367.946 319.75ZM509.966 334.75L504.5 340.5L510.25 335.034C515.592 329.956 516.458 329 515.716 329C515.56 329 512.972 331.588 509.966 334.75ZM156.5 336C159.209 338.75 161.65 341 161.925 341C162.2 341 160.209 338.75 157.5 336C154.791 333.25 152.35 331 152.075 331C151.8 331 153.791 333.25 156.5 336ZM295.809 436.601C287.797 447.545 280.359 457.585 279.281 458.911L277.321 461.321L271.411 455.398C262.874 446.842 256 432.581 256 423.425C256 419.257 254.575 418.816 246.843 420.587C238.498 422.5 232.999 424.696 230.324 427.185L228.148 429.21L234.144 434.2C238.608 437.915 239.958 439.613 239.425 440.845C231.577 458.97 214.676 544 218.92 544C219.514 544 219.887 543.6 219.75 543.11C219.491 542.189 246.908 504.151 249.203 502.247C250.183 501.435 252.797 502.848 259.882 508.018C265.043 511.784 269.698 515.298 270.228 515.828C270.845 516.445 268.106 518.473 262.596 521.477C257.868 524.054 254 526.391 254 526.671C254 528.166 291.293 506.208 303.015 497.812C307.478 494.615 311.464 492 311.873 492C312.283 492 315.255 493.588 318.479 495.53C322.67 498.053 324.648 498.752 325.42 497.982C326.014 497.389 326.649 492.538 326.831 487.202C327.323 472.783 322.696 452.117 312.256 422.101L310.378 416.702L295.809 436.601ZM350.66 432.75C339.851 466.763 336.356 490.847 341.291 497.314C342.365 498.721 343.219 498.462 348.923 495.003L355.347 491.106L358.923 493.931C364.118 498.032 383.845 510.671 396 517.686C408.817 525.083 428.786 535.653 427.73 534.481C427.307 534.012 423.482 531.775 419.23 529.511L411.5 525.395L411.224 509.519L410.947 493.644L414.321 498.072C420.218 505.812 445.577 540.419 446.878 542.5C449.781 547.145 445.52 513.903 439.445 484.514C436.481 470.17 430.525 447.193 428.542 442.447L427.123 439.05L432.717 434.065C437.585 429.726 438.138 428.871 436.978 427.474C434.852 424.912 430.671 423.131 421.788 421.001C410.007 418.177 409.003 418.275 408.988 422.25C408.971 426.89 406.558 435.338 403.416 441.761C400.894 446.916 388.704 461.108 387.75 460C386.628 458.696 368.688 434.513 363.083 426.75C359.609 421.938 356.447 418 356.057 418C355.667 418 353.238 424.637 350.66 432.75ZM243 532C239.975 533.598 237.852 534.927 238.283 534.953C239.346 535.017 249 530.09 249 529.483C249 528.815 249.139 528.757 243 532ZM433 537.5C435.475 538.825 437.95 539.91 438.5 539.91C439.05 539.91 437.475 538.825 435 537.5C432.525 536.175 430.05 535.09 429.5 535.09C428.95 535.09 430.525 536.175 433 537.5ZM174 718.97C174.825 719.52 177.037 719.976 178.917 719.985C183.4 720.005 182.601 719.438 177 718.625C173.855 718.168 172.952 718.272 174 718.97Z" fill="#71B52F"/>
</g>
<g id = "outside" clip-path="url(#clip0_0_1)">
<path fill-rule="evenodd" clip-rule="evenodd" d="M103.725 271.884C101.447 273.867 96.7382 277.021 93.2599 278.893L86.9351 282.297L95.9549 282.665L104.976 283.035L106.744 275.963C107.716 272.073 108.367 268.752 108.189 268.584C108.011 268.416 106.002 269.9 103.725 271.884ZM559.138 272.89C560.922 282.43 560.984 282.482 570.553 282.463C579.825 282.444 579.83 282.354 570.857 277.451C568.119 275.955 564.182 273.353 562.108 271.671L558.338 268.611L559.138 272.89ZM84.1716 352.379C82.3428 359.508 79.7264 365.227 74.7934 372.88C72.4247 376.555 69.0704 382.184 67.339 385.388L64.1927 391.213H76.902H89.6113L89.608 381.504C89.6047 371.253 87.7748 353.562 86.3178 349.687C85.5888 347.751 85.2491 348.178 84.1716 352.379ZM578.679 357.095C577.987 362.13 577.314 371.741 577.182 378.453L576.942 390.658L589.388 390.972C596.234 391.144 601.831 390.894 601.826 390.417C601.822 389.939 598.083 383.353 593.519 375.779C586.185 363.612 581.92 353.914 581.92 349.404C581.92 348.599 581.473 347.941 580.928 347.941C580.383 347.941 579.37 352.061 578.679 357.095ZM8.36927 461.669C12.9129 480.443 23.8388 508.473 34.9362 529.826C74.5887 606.117 147.428 663.954 238.98 691.844C271.443 701.733 310.874 707.328 310.874 702.046C310.874 701.552 305.706 700.061 299.389 698.732C248.697 688.064 196.41 663.385 157.096 631.571C145.64 622.3 126.966 603.358 118.018 591.934C113.636 586.339 102.459 575.046 90.9555 564.592C48.6235 526.122 30.3749 503.786 14.2405 470.699C8.24425 458.4 7.1833 456.77 8.36927 461.669ZM653.953 467.229C649.238 477.784 639.418 494.462 630.995 506.22C619.587 522.146 606.326 536.3 580.585 560.022C565.392 574.026 552.003 587.447 546.706 593.985C536.184 606.972 517.375 625.455 504.478 635.481C475.148 658.28 437.689 677.802 399.874 689.997C385.204 694.729 361.046 700.768 356.793 700.768C355.196 700.768 355.097 701.061 356.233 702.432C359.362 706.215 385.209 703.213 413.208 695.815C477.433 678.845 532.54 648.023 575.943 604.795C612.722 568.163 636.518 529.067 653.212 477.837C656.051 469.124 658.224 461.284 658.039 460.416C657.854 459.548 656.016 462.613 653.953 467.229ZM628.247 463.05L613.174 463.392L609.6 474.699C605.496 487.683 596.846 508.382 591.255 518.592C589.149 522.441 588.126 525.187 588.982 524.694C592.472 522.688 614.982 501.863 620.8 495.259C628.365 486.67 638.171 473.786 639.546 470.63C640.959 467.385 643.125 464.03 644.427 463.07C645.165 462.528 645.165 462.331 644.427 462.482C643.818 462.607 636.538 462.862 628.247 463.05ZM26.3634 469.963C33.4792 481.25 43.6982 493.517 55.5822 505.038C67.3412 516.437 79.2429 526.771 78.4376 524.883C78.1842 524.287 76.1785 520.305 73.9813 516.033C67.6399 503.708 63.0189 492.673 57.952 477.755L53.2402 463.886L37.6921 463.579L22.144 463.27L26.3634 469.963ZM103.698 487.815C101.493 492.433 98.6266 499.922 97.33 504.458C94.3994 514.712 93.136 535.453 95.082 541.368L96.4207 545.435H110.283C123.05 545.435 124.081 545.282 123.347 543.494C114.17 521.132 109.73 504.956 108.499 489.405L107.708 479.419L103.698 487.815ZM558.733 482.748C558.504 495.841 552.262 521.6 545.356 537.946L542.191 545.435H556.504C572.706 545.435 571.167 546.453 572.441 534.895C573.854 522.08 568.751 498.609 561.525 484.688C558.896 479.621 558.788 479.547 558.733 482.748ZM458.572 566.507C458.199 567.113 458.403 568.486 459.026 569.559C459.998 571.232 460.164 571.075 460.193 568.458C460.227 565.267 459.716 564.651 458.572 566.507Z" fill="#36AF3C"/>
<path fill-rule="evenodd" clip-rule="evenodd" d="M240.07 78.3373C185.886 90.755 140.876 114.097 100.674 150.625C68.4586 179.898 59.5816 197.697 56.3124 239.579C55.6375 248.223 54.4848 259.166 53.7502 263.895C53.0167 268.624 52.5443 272.494 52.7014 272.494C53.6307 272.494 95.7027 209.398 97.6553 205.074C100.853 197.994 100.759 188.798 97.3809 178.542L94.759 170.578L97.8743 166.481C103.798 158.693 124.588 138.767 135.568 130.355C170.292 103.75 203.985 89.2028 257.494 77.7115C261.01 76.9559 260.595 74.9832 256.941 75.0842C255.268 75.1297 247.676 76.5942 240.07 78.3373ZM407.322 76.1538C407.617 77.0414 412.68 78.6602 419.915 80.1802C478.74 92.5402 528.975 121.098 565.716 163.068L572.112 170.374L569.272 178.627C565.584 189.34 565.52 197.81 569.067 205.451C571.125 209.882 611.325 270.209 613.743 272.494C614.066 272.799 614.003 271.801 613.605 270.275C613.207 268.749 612.381 262.259 611.772 255.851C611.162 249.444 610.123 238.481 609.464 231.49C606.648 201.661 599.024 184.641 579.17 163.866C538.859 121.684 485.684 91.5938 429.249 79.0296C410.515 74.8589 406.727 74.3619 407.322 76.1538ZM245.048 116.865C227.768 121.202 199.247 132.288 175.855 143.761C169.601 146.828 163.15 149.338 161.52 149.338C156.647 149.338 142.225 153.425 136.083 156.546C128.902 160.195 121.055 167.369 118.282 172.82C115.679 177.936 115.533 186.206 117.973 190.345C122.178 197.485 133.496 199.543 142.688 194.841C152.466 189.838 162.84 177.332 170.256 161.607C173 155.788 174.814 153.69 181.089 149.083C194.91 138.936 231.491 123.038 248.293 119.877C250.568 119.448 252.239 118.481 252.239 117.593C252.239 116.055 249.414 115.769 245.048 116.865ZM414.867 117.538C414.867 118.456 418.23 119.925 423.68 121.389C443.84 126.8 469.492 138.159 484.012 148.103C490.919 152.834 492.296 154.416 496.751 162.745C509.531 186.634 520.923 197.112 534.227 197.215C543.697 197.29 549.458 192.579 550.633 183.8C551.93 174.091 542.044 161.549 528.264 155.424C521.648 152.485 509.53 149.338 504.825 149.338C502.884 149.338 495.129 146.21 486.641 142.004C467.431 132.484 447.923 124.687 431.318 119.893C416.538 115.627 414.867 115.387 414.867 117.538ZM248.367 158.892C219.416 166.842 189.736 182.541 158.994 206.16L148.17 214.478L135.428 215.242C120.793 216.119 112.058 218.492 104.654 223.601C101.23 225.963 92.8417 235.52 80.1479 251.52C69.5328 264.899 60.8472 276.043 60.8472 276.283C60.8472 276.523 63.4603 275.321 66.6553 273.613C69.8503 271.905 79.2463 268.48 87.5359 266.001C106.108 260.448 112.61 257.603 124.226 249.95C135.352 242.618 145.425 233.717 156.499 221.433C182.556 192.524 216.616 171.131 251.963 161.47C257.629 159.921 261.09 158.41 261.09 157.485C261.09 155.545 260.192 155.644 248.367 158.892ZM405.42 157.174C404.462 158.728 404.327 158.659 412.654 160.921C424.209 164.06 440.061 170.253 451.375 176.05C473.433 187.351 489.542 199.841 509.908 221.432C534.255 247.241 551.775 258.456 580.202 266.428C594.699 270.492 599.7 272.481 603.223 275.58C608.361 280.098 604.591 274.594 588.972 254.776C568.206 228.426 564.392 224.45 555.922 220.318C549.109 216.995 536.678 214.799 524.679 214.799C519.024 214.799 518.374 214.46 505.842 204.967C475.012 181.611 449.813 168.219 421.346 160.061C407.572 156.113 406.225 155.869 405.42 157.174ZM43.1882 218.161C24.538 243.387 16.2982 265.271 16.255 289.692C16.2185 310.583 19.2996 321.53 34.4362 354.27C39.8549 365.99 44.591 377.098 44.9616 378.957C45.9994 384.163 47.1953 382.982 47.9089 376.049C48.9598 365.835 53.8033 357.655 67.5647 342.853C82.9203 326.336 91.8427 314.53 96.83 304.131C101.67 294.04 105.229 283.8 104.133 283.121C103.675 282.837 99.3369 282.51 94.4923 282.392C84.436 282.149 81.1956 283.396 70.2221 291.727C62.2854 297.754 55.1298 306.758 49.763 317.472L45.8013 325.379L44.362 305.872C41.7589 270.614 41.5431 249.601 43.6529 236.946C44.6906 230.721 46.6985 222.068 48.1157 217.717C49.5318 213.366 50.5209 209.632 50.314 209.42C50.106 209.207 46.8999 213.14 43.1882 218.161ZM616.494 210.916C616.823 212.136 618.373 217.826 619.938 223.56C624.729 241.127 625.679 257.028 623.559 284.154C622.557 296.963 621.719 312.187 621.695 317.984L621.653 328.525L618.998 322.112C612.672 306.839 600.574 292.912 587.616 285.985C581.489 282.71 579.72 282.299 570.994 282.122L561.23 281.925L562.299 285.808C564.585 294.114 571.792 309.051 577.522 317.364C580.824 322.154 588.92 331.822 595.515 338.85C612.706 357.169 615.982 362.388 618.873 376.042C620.22 382.405 620.382 382.655 621.17 379.562C621.636 377.732 626.415 366.698 631.792 355.041C637.167 343.386 642.891 329.905 644.51 325.084C655.983 290.929 650.785 258.514 628.561 225.639C621.292 214.885 615.735 208.104 616.494 210.916ZM658.519 328.218C656.257 351.445 651.129 367.095 633.949 403.204C628.343 414.986 622.387 428.396 620.712 433.002L617.667 441.378L616.972 433.215C616.079 422.73 613.896 415.418 607.682 402.093L602.666 391.339L589.675 390.998L576.685 390.658L577.156 397.315C577.999 409.192 580.866 429.116 584.182 446.133C592.095 486.753 592.788 507.192 586.853 524.909C586.445 526.13 587.249 525.381 588.641 523.245C593.257 516.164 603.877 491.831 608.641 477.422L613.337 463.219L628.503 463.553C636.843 463.736 643.436 463.512 643.152 463.054C642.869 462.595 643.165 462.221 643.808 462.221C644.452 462.221 644.98 461.473 644.98 460.557C644.98 459.642 645.404 458.893 645.923 458.893C648.154 458.893 657.259 436.132 660.892 421.469C667.897 393.208 668.903 364.879 663.986 334.39C660.522 312.9 660.061 312.381 658.519 328.218ZM3.86877 326.071C2.30334 334.011 1.75019 343.277 1.39063 367.596C0.970235 396.007 1.14282 400.032 3.25809 411.12C6.63234 428.807 17.1722 457.506 21.2567 460.127C21.8386 460.5 22.1484 461.248 21.9437 461.791C21.7401 462.332 28.7066 463.026 37.4254 463.331L53.2789 463.886L57.6123 476.893C64.0422 496.188 81.0518 533.191 79.1755 523.8C75.3399 504.608 75.0832 502.194 75.7005 491.069C76.3588 479.175 77.6709 470.309 82.47 445.295C85.8476 427.693 88.1333 412.274 89.1301 400.366L89.8967 391.212H76.9551H64.0123L58.7253 402.585C52.1305 416.772 49.8172 425.169 49.6601 435.48L49.5384 443.538L46.8103 435.414C45.3101 430.946 39.0816 416.802 32.9681 403.982C15.0215 366.347 9.36493 349.001 8.07497 327.657C7.71321 321.688 7.07265 316.59 6.65115 316.328C6.22854 316.066 4.97619 320.451 3.86877 326.071ZM95.2303 544.603C95.1827 545.671 95.5168 546.546 95.9726 546.548C96.4284 546.55 96.8411 548.172 96.8897 550.154C97.0136 555.284 103.882 571.467 109.762 580.481C143.371 632.009 214.773 678.207 288.713 696.269C307.195 700.783 310.874 701.303 310.874 699.394C310.874 696.496 305.856 693.061 295.331 688.756C243.282 667.465 204.378 642.748 171.94 610.36C153.636 592.085 144.661 580.889 134.126 563.188C130.313 556.78 126.578 550.62 125.826 549.498C125.075 548.377 124.584 547.004 124.737 546.447C124.893 545.876 118.796 545.435 110.723 545.435C100.327 545.435 96.2813 545.057 95.8752 544.048C95.5422 543.22 95.2823 543.444 95.2303 544.603ZM539.21 551.216C510.902 607.241 450.102 657.073 371.721 688.491C361.217 692.702 355.126 696.823 355.126 699.72C355.126 701.303 357.567 701.03 371.531 697.889C419.768 687.039 471.433 662.26 508.351 632.267C530.809 614.021 553.765 587.974 561.802 571.617C565.661 563.761 570.857 549.309 570.857 546.428C570.857 545.882 564.394 545.435 556.494 545.435H542.131L539.21 551.216ZM456.539 568.366C455.238 569.67 455.743 570.68 457.994 571.27C459.86 571.76 460.019 571.531 459.061 569.736C457.817 567.404 457.609 567.291 456.539 568.366Z" fill="#6ABC2E"/>
</g>
</svg>
