<svg xmlns="http://www.w3.org/2000/svg" width="602" height="767" viewBox="0 0 602 767" version="1.1"><path d="M 217 3.008 C 168.023 14.200, 127.338 35.238, 91 68.160 C 61.880 94.544, 53.856 110.586, 50.901 148.334 C 50.291 156.125, 49.249 165.988, 48.585 170.250 C 47.922 174.512, 47.495 178, 47.637 178 C 48.477 178, 86.506 121.132, 88.271 117.235 C 91.161 110.854, 91.076 102.565, 88.023 93.322 L 85.653 86.144 88.469 82.451 C 93.823 75.432, 112.616 57.473, 122.540 49.891 C 153.928 25.912, 184.383 12.801, 232.750 2.444 C 235.928 1.763, 235.553 -0.015, 232.250 0.076 C 230.738 0.117, 223.875 1.437, 217 3.008 M 368.180 1.040 C 368.447 1.840, 373.023 3.299, 379.563 4.669 C 432.735 15.809, 478.143 41.548, 511.353 79.375 L 517.134 85.960 514.567 93.398 C 511.234 103.054, 511.176 110.688, 514.382 117.575 C 516.242 121.568, 552.579 175.941, 554.765 178 C 555.057 178.275, 555 177.375, 554.640 176 C 554.280 174.625, 553.534 168.775, 552.983 163 C 552.432 157.225, 551.493 147.344, 550.897 141.043 C 548.352 114.159, 541.460 98.819, 523.514 80.094 C 487.077 42.076, 439.012 14.956, 388 3.632 C 371.066 -0.127, 367.642 -0.575, 368.180 1.040 M 221.500 37.733 C 205.880 41.642, 180.100 51.633, 158.956 61.974 C 153.303 64.738, 147.472 67, 145.999 67 C 141.594 67, 128.558 70.684, 123.006 73.497 C 116.515 76.786, 109.422 83.252, 106.916 88.165 C 104.563 92.776, 104.431 100.229, 106.636 103.960 C 110.437 110.395, 120.668 112.250, 128.976 108.012 C 137.815 103.503, 147.192 92.231, 153.895 78.058 C 156.375 72.814, 158.015 70.923, 163.687 66.771 C 176.180 57.625, 209.246 43.296, 224.433 40.447 C 226.489 40.061, 228 39.189, 228 38.389 C 228 37.003, 225.446 36.745, 221.500 37.733 M 375 38.339 C 375 39.167, 378.040 40.491, 382.966 41.810 C 401.189 46.687, 424.376 56.925, 437.500 65.887 C 443.744 70.151, 444.988 71.577, 449.015 79.084 C 460.567 100.615, 470.864 110.059, 482.890 110.152 C 491.450 110.219, 496.657 105.973, 497.719 98.061 C 498.892 89.310, 489.956 78.006, 477.500 72.486 C 471.520 69.837, 460.566 67, 456.313 67 C 454.559 67, 447.549 64.181, 439.877 60.390 C 422.513 51.810, 404.879 44.783, 389.870 40.462 C 376.510 36.617, 375 36.401, 375 38.339 M 224.500 75.611 C 198.331 82.777, 171.503 96.926, 143.715 118.214 L 133.931 125.711 122.414 126.399 C 109.185 127.190, 101.290 129.328, 94.597 133.933 C 91.502 136.062, 83.920 144.676, 72.446 159.096 C 62.851 171.155, 55 181.199, 55 181.415 C 55 181.631, 57.362 180.548, 60.250 179.009 C 63.138 177.469, 71.631 174.382, 79.124 172.148 C 95.911 167.143, 101.789 164.579, 112.288 157.681 C 122.345 151.073, 131.450 143.051, 141.460 131.979 C 165.013 105.924, 195.800 86.642, 227.750 77.935 C 232.872 76.539, 236 75.177, 236 74.343 C 236 72.595, 235.189 72.684, 224.500 75.611 M 366.461 74.063 C 365.595 75.464, 365.473 75.401, 373 77.440 C 383.444 80.269, 397.773 85.851, 408 91.076 C 427.938 101.261, 442.499 112.518, 460.908 131.978 C 482.915 155.240, 498.752 165.348, 524.447 172.533 C 537.551 176.196, 542.071 177.988, 545.256 180.781 C 549.900 184.853, 546.492 179.893, 532.374 162.031 C 513.604 138.282, 510.156 134.698, 502.500 130.974 C 496.342 127.979, 485.105 126, 474.259 126 C 469.148 126, 468.560 125.694, 457.233 117.138 C 429.365 96.088, 406.588 84.018, 380.856 76.665 C 368.406 73.107, 367.188 72.887, 366.461 74.063 M 297.922 98.750 C 288.532 113.449, 262.599 169.190, 263.198 173.385 C 263.442 175.093, 265.345 176.120, 273.092 178.723 C 278.368 180.495, 285.343 182.206, 288.592 182.525 C 291.841 182.844, 295.962 183.327, 297.750 183.598 L 301 184.091 301 217.045 C 301 235.170, 301.269 250, 301.598 250 C 302.636 250, 318.106 238.827, 328.500 230.571 C 346.561 216.223, 358.542 202.770, 360.401 194.750 C 360.999 192.167, 360.833 192, 357.659 192 C 355.800 192, 352.263 191.724, 349.800 191.386 L 345.320 190.772 343.056 183.636 C 339.793 173.351, 332.880 155.786, 332.318 156.349 C 332.054 156.613, 332.340 157.767, 332.954 158.914 C 334.064 160.988, 333.978 161, 318.186 161 L 302.302 161 301.656 151.250 C 300.504 133.858, 300.854 94.792, 302.155 95.595 C 302.870 96.038, 303.038 95.870, 302.595 95.155 C 301.507 93.393, 301.186 93.640, 297.922 98.750 M 39.038 129.030 C 22.180 151.766, 14.732 171.490, 14.693 193.500 C 14.662 210.956, 17.733 222.815, 28.085 245.218 C 33.049 255.960, 33.728 256.939, 36.231 256.968 C 39.375 257.005, 39.579 257.587, 40.535 269.250 C 40.885 273.512, 41.519 277, 41.945 277 C 42.372 277, 42.983 274.450, 43.305 271.333 C 44.254 262.139, 48.635 254.755, 61.058 241.414 C 75.172 226.257, 82.207 217.040, 87.118 207.270 L 91.023 199.500 75.262 199 L 59.500 198.500 56.204 202 C 51.666 206.818, 45.333 216.588, 43.241 222 L 41.501 226.500 40.315 211 C 39.663 202.475, 38.808 186.715, 38.416 175.977 C 37.630 154.451, 38.886 142.735, 43.492 128.630 C 44.772 124.708, 45.666 121.343, 45.479 121.152 C 45.291 120.960, 42.393 124.505, 39.038 129.030 M 557.251 122.500 C 557.549 123.600, 558.950 128.728, 560.364 133.896 C 564.695 149.729, 565.554 164.061, 563.637 188.509 C 562.732 200.054, 561.974 213.775, 561.953 219 L 561.915 228.500 559.515 222.720 C 556.788 216.157, 549.404 204.655, 545.667 201.152 C 543.248 198.884, 542.638 198.809, 527.868 198.949 C 519.455 199.029, 512.398 199.269, 512.184 199.483 C 511.366 200.300, 517.130 211.362, 522.179 218.665 C 525.078 222.859, 532.327 231.472, 538.288 237.806 C 553.924 254.420, 557.761 260.678, 559.566 272.501 C 560.257 277.029, 560.399 277.240, 561.080 274.743 C 561.493 273.227, 562.151 268.572, 562.542 264.398 C 563.246 256.879, 563.277 256.814, 565.932 257.203 C 568.471 257.576, 568.904 256.966, 574.250 245.484 C 577.352 238.822, 581.092 229.801, 582.563 225.436 C 592.947 194.612, 588.256 165.414, 568.159 135.770 C 561.588 126.077, 556.565 119.966, 557.251 122.500 M 368.185 207.826 C 362.632 213.546, 355.777 226.205, 349.658 242.037 C 342.449 260.693, 335.716 283.137, 338.770 278.339 C 339.402 277.344, 397.783 258, 400.152 258 C 400.618 258, 401 270.873, 401 286.607 C 401 309.076, 400.732 315.113, 399.750 314.744 C 399.063 314.486, 397.375 313.992, 396 313.648 C 394.114 313.175, 394.265 313.374, 396.615 314.458 C 400.831 316.404, 409.569 317.506, 410.380 316.195 C 410.729 315.629, 410.344 312.316, 409.523 308.833 C 408.701 305.350, 408.023 302.179, 408.015 301.787 C 408.007 301.395, 410.587 299.309, 413.750 297.150 C 425.506 289.126, 446.097 271.027, 465.909 251.303 C 477.133 240.127, 486.060 230.726, 485.745 230.412 C 485.430 230.097, 472.422 233.905, 456.836 238.873 C 420.700 250.394, 423.265 249.827, 422.021 246.556 C 419.410 239.687, 415.408 232.386, 410.528 225.583 C 407.592 221.491, 405.447 217.886, 405.762 217.572 C 406.076 217.257, 400.448 217, 393.255 217 L 380.177 217 377.430 210 C 375.920 206.150, 374.276 203, 373.777 203 C 373.278 203, 370.762 205.172, 368.185 207.826 M 224.671 211.012 L 221.843 218 210.980 218 L 200.117 218 195.308 224.245 C 190.492 230.500, 182 246.177, 182 248.814 C 182 250.660, 182.219 250.718, 146.665 239.364 C 130.256 234.124, 116.567 230.100, 116.245 230.422 C 115.286 231.380, 159.552 274.751, 172 285.049 C 185.714 296.394, 195.005 303.360, 194.988 302.282 C 194.981 301.852, 193.455 300.516, 191.597 299.313 L 188.219 297.125 194.232 278.313 C 197.539 267.966, 200.603 259.109, 201.041 258.631 C 201.781 257.824, 225.005 264.763, 252.645 274.049 C 259.084 276.212, 264.482 277.852, 264.640 277.693 C 265.182 277.152, 253.213 242.524, 249.562 234.070 C 242.652 218.068, 232.874 203.970, 228.715 204.012 C 228.047 204.019, 226.227 207.169, 224.671 211.012 M 595.223 228.224 C 594.556 234.976, 593.115 243.875, 592.022 248 C 590.929 252.125, 590.027 255.859, 590.017 256.298 C 590.008 256.736, 592.813 256.961, 596.250 256.798 L 602.500 256.500 602.383 252 C 602.247 246.774, 598.324 221.050, 597.200 218.011 C 596.705 216.674, 596.010 220.264, 595.223 228.224 M 3.528 226.787 C 2.547 232.129, 1.518 241.113, 1.241 246.750 L 0.738 257 6.928 257 C 10.678 257, 12.881 256.617, 12.518 256.029 C 11.037 253.633, 7.015 230.843, 7.008 224.809 C 7.004 221.129, 6.620 217.883, 6.156 217.596 C 5.692 217.309, 4.509 221.445, 3.528 226.787 M 48.047 307.376 C 43.822 318.489, 43.768 331.137, 47.878 347 C 51.657 361.587, 55.937 373.694, 62.016 387 C 67.373 398.724, 72.551 407.968, 71.539 404 C 66.398 383.849, 67.039 372.398, 75.876 326.500 C 76.935 321, 78.123 313.913, 78.516 310.750 L 79.230 305 64.090 305 C 49.073 305, 48.943 305.019, 48.047 307.376 M 523.750 306.250 C 523.243 307.614, 526.190 325.476, 530.555 347.500 C 532.913 359.393, 533.336 364.059, 533.371 378.500 C 533.402 391.091, 533.008 396.862, 531.853 400.750 C 530.995 403.637, 530.473 406, 530.693 406 C 532.111 406, 545.753 375.131, 549.869 362.611 C 558.441 336.532, 559.744 324.409, 555.497 310.250 L 553.923 305 539.068 305 C 528.099 305, 524.093 305.327, 523.750 306.250 M 230.500 322.098 C 215.077 323.703, 202.632 327.223, 198.324 331.201 L 196.148 333.210 202.144 338.200 C 206.614 341.920, 207.958 343.612, 207.421 344.845 C 207.025 345.755, 205.134 351.582, 203.220 357.794 C 200.231 367.490, 199.942 369.259, 201.175 370.294 C 201.965 370.957, 205.144 374.650, 208.241 378.500 C 211.337 382.350, 216.149 387.291, 218.935 389.480 C 221.721 391.669, 223.983 393.919, 223.961 394.480 C 223.940 395.041, 215.623 406.975, 205.478 421 C 195.334 435.025, 187.498 446.657, 188.065 446.849 C 188.633 447.042, 199.088 442.241, 211.298 436.182 C 234.535 424.652, 258.188 411.035, 271.147 401.728 C 275.352 398.707, 279.402 395.993, 280.147 395.697 C 281.133 395.304, 281.059 395.136, 279.872 395.079 C 278.977 395.036, 277.699 395.658, 277.032 396.461 C 274.031 400.078, 272.314 399.344, 256.009 387.476 C 247.204 381.067, 240 375.457, 240 375.009 C 240 373.642, 276.488 323.067, 278.413 321.765 C 279.875 320.777, 240.574 321.050, 230.500 322.098 M 325.035 322.823 C 325.841 323.979, 332.702 333.545, 340.281 344.079 L 354.063 363.231 353.781 389.521 C 353.627 403.980, 353.837 415.602, 354.250 415.346 C 354.663 415.091, 355 415.252, 355 415.704 C 355 416.156, 355.878 416.970, 356.952 417.513 C 358.025 418.056, 365.834 422.437, 374.304 427.249 C 391.250 436.877, 412.541 447.320, 414.137 446.788 C 414.698 446.601, 408.015 436.560, 399.287 424.474 C 390.559 412.388, 382.031 400.475, 380.337 398 L 377.256 393.500 381.700 390 C 386.774 386.005, 394.123 377.756, 398.953 370.637 L 402.252 365.774 400.028 357.637 C 398.805 353.162, 397.201 348.049, 396.464 346.275 C 395.126 343.057, 395.135 343.040, 400.812 337.959 L 406.500 332.868 403.715 330.452 C 397.220 324.817, 380.627 322.043, 349.035 321.310 L 323.570 320.720 325.035 322.823 M 110.145 469.677 C 144.740 512.014, 205.683 547.614, 267.172 561.405 C 280.536 564.403, 281 564.445, 281 562.674 C 281 560.150, 276.359 557.012, 266.951 553.174 C 234.211 539.820, 206.487 524.354, 180 504.667 C 174.775 500.784, 162.523 489.595, 152.774 479.803 L 135.049 462 119.460 462 L 103.872 462 110.145 469.677 M 461.700 467.750 C 430.423 503.178, 390.171 530.595, 337.550 552.311 C 328.603 556.003, 323.987 558.477, 322.617 560.311 C 321.526 561.772, 320.915 563.248, 321.258 563.591 C 323.184 565.517, 360.687 555.233, 380.500 547.345 C 429.950 527.658, 469.575 499.200, 496.896 463.750 C 498.168 462.100, 497.343 462, 482.511 462 L 466.776 462 461.700 467.750 M 322.230 626.037 C 311.654 627.365, 297.597 630.821, 289 634.207 C 280.501 637.553, 271 642.723, 271 644.001 C 271 645.543, 283.330 652.393, 291.951 655.639 L 300.401 658.821 308.229 654.885 C 320.393 648.769, 330.649 646.651, 348.500 646.569 C 356.750 646.531, 365.976 646.828, 369.002 647.230 L 374.503 647.959 379.811 639.730 L 385.119 631.500 381.996 630.221 C 372.034 626.142, 339.520 623.866, 322.230 626.037" stroke="none" fill="#85c329" fill-rule="evenodd"/><path d="M 301.038 118 C 301.023 130.925, 301.301 145.887, 301.656 151.250 L 302.302 161 318.084 161 L 333.865 161 329.812 151.250 C 327.582 145.887, 325.233 140.150, 324.592 138.500 C 322.360 132.760, 304.990 99.209, 303.035 96.862 L 301.067 94.500 301.038 118 M 259.401 181.788 C 256.572 190.563, 256.413 190.802, 253 191.383 C 251.075 191.710, 247.813 191.983, 245.750 191.989 C 242.646 191.998, 242 192.351, 242 194.040 C 242 202.463, 261.835 222.455, 290.500 242.925 L 300.500 250.066 300.764 217.380 C 300.909 199.403, 300.818 184.484, 300.561 184.228 C 300.304 183.971, 296.285 183.375, 291.629 182.903 C 281.920 181.919, 264.480 176.680, 263.180 174.357 C 262.537 173.208, 261.527 175.194, 259.401 181.788 M 93.546 177.632 C 91.371 179.520, 84.621 183.492, 78.546 186.458 C 72.471 189.424, 65.700 193.441, 63.500 195.384 L 59.500 198.917 75.275 198.958 L 91.050 199 92.105 196.250 C 93.635 192.267, 98.211 174.875, 97.826 174.510 C 97.647 174.339, 95.721 175.744, 93.546 177.632 M 505 175.977 C 505 177.830, 507.860 188.855, 509.740 194.250 L 511.395 199 526.698 199 C 535.718 199, 542 198.609, 542 198.048 C 542 196.547, 534.452 191.744, 522.500 185.641 C 516.450 182.552, 510.038 178.836, 508.250 177.384 C 506.433 175.907, 505 175.288, 505 175.977 M 405.634 217.699 C 405.390 217.943, 407.592 221.491, 410.528 225.583 C 415.408 232.386, 419.410 239.687, 422.021 246.556 C 423.263 249.822, 420.614 250.403, 457 238.887 C 472.675 233.926, 485.950 229.740, 486.500 229.585 C 489.787 228.658, 451.138 221.885, 429.500 219.596 C 409.180 217.447, 406.129 217.204, 405.634 217.699 M 173.500 220.099 C 151.807 222.379, 114.982 228.407, 116.181 229.481 C 116.630 229.883, 175.901 248.748, 179.250 249.554 C 181.258 250.038, 182 249.838, 182 248.814 C 182 246.177, 190.492 230.500, 195.308 224.245 L 200.117 218 195.808 218.103 C 193.439 218.160, 183.400 219.058, 173.500 220.099 M 76.100 250 C 74.527 256.204, 71.663 262.185, 66.043 271 C 61.283 278.468, 55.043 290.328, 50.641 300.274 L 48.328 305.500 63.560 305.202 C 78.269 304.914, 78.814 304.829, 79.450 302.702 C 81.830 294.737, 80.821 254.997, 78.052 247.652 C 77.351 245.793, 77.085 246.112, 76.100 250 M 522.943 254.750 C 520.814 269.489, 521.560 309.948, 523.891 306.176 C 524.338 305.453, 529.791 304.957, 539.283 304.778 L 553.982 304.500 548.127 292.500 C 544.908 285.900, 539.287 275.605, 535.638 269.623 C 529.765 259.998, 526 251.283, 526 247.318 C 526 246.593, 525.596 246, 525.103 246 C 524.610 246, 523.638 249.938, 522.943 254.750 M 0.328 274.750 C 0.927 302.174, 5.909 322.475, 17.519 344.802 C 27.367 363.741, 42.590 382.008, 63.147 399.556 L 72.453 407.500 69.384 402 C 59.814 384.849, 50.877 360.794, 45.940 338.900 C 42.681 324.445, 39.867 317.182, 28.064 292.752 C 23.614 283.540, 19.033 273.640, 17.884 270.752 C 16.736 267.863, 15.317 264.375, 14.732 263 C 13.553 260.231, 13.309 259.471, 13.125 258 C 13.056 257.448, 10.073 257, 6.470 257 L -0.059 257 0.328 274.750 M 34.238 257.750 C 36.372 262.244, 37.224 264.209, 38.894 268.500 L 40.841 273.500 40.358 267.500 C 39.579 257.832, 39.267 257, 36.422 257 C 35.025 257, 34.042 257.337, 34.238 257.750 M 562.597 263.626 C 562.224 267.270, 562.096 270.429, 562.313 270.646 C 562.530 270.863, 563.629 268.669, 564.756 265.770 C 565.883 262.872, 567.123 259.712, 567.510 258.750 C 568.067 257.366, 567.698 257, 565.745 257 C 563.437 257, 563.232 257.431, 562.597 263.626 M 589 259 C 589 260.100, 589.038 261.287, 589.085 261.638 C 589.132 261.989, 588.763 262.552, 588.265 262.888 C 587.767 263.225, 586.200 266.425, 584.782 270 C 583.365 273.575, 577.935 285.500, 572.716 296.500 C 561.877 319.343, 558.951 327.034, 556.548 338.992 C 553.657 353.377, 545.228 377.208, 537.632 392.470 C 533.709 400.352, 531.250 406.268, 532.166 405.615 C 533.082 404.963, 538.821 399.994, 544.919 394.572 C 572.626 369.938, 589.661 343.227, 597.389 312.299 C 601.085 297.503, 602 289.621, 602 272.558 L 602 257 595.500 257 C 589.667 257, 589 257.205, 589 259 M 200.686 258.750 C 200.448 259.163, 197.677 267.600, 194.527 277.500 C 191.377 287.400, 188.297 296.175, 187.683 297 C 187.069 297.825, 186.950 298.176, 187.420 297.780 C 187.890 297.383, 189.675 298.025, 191.387 299.206 C 193.099 300.386, 194.583 301.394, 194.685 301.444 C 194.786 301.495, 194.012 304.678, 192.964 308.518 C 191.916 312.358, 191.045 315.837, 191.029 316.250 C 190.976 317.612, 199.555 317.030, 204.572 315.332 C 214.949 311.819, 235.661 299.335, 255.415 284.687 L 264.330 278.076 261.485 276.994 C 256.631 275.149, 202.919 258, 201.993 258 C 201.512 258, 200.924 258.337, 200.686 258.750 M 369 267.649 C 352.775 272.888, 339.308 277.364, 339.073 277.597 C 338.151 278.512, 351.081 288.511, 360.931 294.500 C 361.835 295.050, 365.053 297.150, 368.080 299.166 C 371.108 301.182, 377.166 304.675, 381.543 306.927 C 385.919 309.180, 390.063 311.485, 390.750 312.051 C 391.438 312.616, 392 312.856, 392 312.584 C 392 312.311, 393.857 312.744, 396.126 313.544 C 398.395 314.345, 400.420 315, 400.626 315 C 400.832 315, 401 302.175, 401 286.500 C 401 264.333, 400.722 258.014, 399.750 258.062 C 399.063 258.097, 385.225 262.411, 369 267.649 M 271.669 330.117 C 251.154 358.491, 240 374.303, 240 375.009 C 240 375.457, 247.239 381.092, 256.087 387.532 C 273.267 400.038, 272.582 399.784, 278.278 395.757 C 279.458 394.924, 280.300 394.844, 280.778 395.520 C 281.175 396.082, 282.625 397.070, 284 397.716 C 285.375 398.363, 287.958 399.858, 289.740 401.038 L 292.980 403.184 294.095 400.342 C 295.843 395.890, 294.487 377.114, 291.543 365 C 288.590 352.849, 278.916 321.988, 278.072 322.026 C 277.757 322.040, 274.876 325.681, 271.669 330.117 M 318.660 336.750 C 307.851 370.763, 304.356 394.847, 309.291 401.314 C 310.365 402.721, 311.219 402.462, 316.923 399.003 L 323.347 395.106 326.923 397.894 C 331.437 401.412, 344.095 409.855, 350 413.286 L 354.500 415.900 354 389.120 L 353.500 362.339 340.604 344.420 C 333.511 334.564, 326.986 325.502, 326.104 324.281 C 325.222 323.061, 324.241 322.049, 323.924 322.031 C 323.607 322.014, 321.238 328.637, 318.660 336.750 M 7.565 348.502 C 11.672 365.423, 21.548 390.686, 31.579 409.931 C 67.421 478.692, 133.261 530.820, 216.015 555.957 C 245.249 564.837, 281 569.913, 281 565.185 C 281 564.758, 275.391 563.182, 268.535 561.685 C 206.608 548.154, 145.037 512.378, 110.106 469.629 L 103.794 461.905 120.265 462.202 L 136.736 462.500 132.358 456.812 C 113.855 432.778, 100.131 399.429, 98.073 373.500 L 97.358 364.500 93.733 372.067 C 83.247 393.959, 82.278 417.872, 90.995 439.648 C 92.724 443.967, 95.508 449.750, 97.182 452.500 L 100.226 457.500 97.363 454.931 C 78.448 437.961, 59.788 420.486, 52.463 412.882 C 36.147 395.944, 22.867 377.078, 12.872 356.641 C 7.452 345.556, 6.493 344.086, 7.565 348.502 M 591.111 353.513 C 586.849 363.026, 577.972 378.058, 570.359 388.655 C 560.042 403.015, 548.057 415.768, 524.746 437.191 C 504.482 455.813, 502.323 457.540, 505.017 452.972 C 514.640 436.650, 518.917 417.921, 516.961 400.658 C 515.882 391.133, 511.728 377.246, 507.565 369.249 C 505.188 364.682, 505.091 364.615, 505.041 367.500 C 504.914 374.742, 501.716 391.413, 498.422 402 C 492.695 420.410, 481.993 440.684, 467.543 460.500 C 466.098 462.481, 466.240 462.497, 482.205 462.201 C 497.599 461.915, 498.264 461.983, 496.937 463.701 C 480.192 485.382, 462.582 501.406, 437 518.237 C 406.210 538.496, 367.637 554.557, 331.629 562.112 C 323.062 563.910, 321.245 564.591, 322.139 565.668 C 324.823 568.901, 348.835 566.034, 373.500 559.536 C 431.554 544.241, 481.365 516.461, 520.597 477.500 C 553.842 444.484, 575.351 409.247, 590.441 363.074 C 593.007 355.221, 594.971 348.155, 594.804 347.373 C 594.637 346.590, 592.975 349.353, 591.111 353.513 M 398.466 371.250 C 394.037 377.975, 388.088 384.682, 382.407 389.359 L 377.163 393.677 391.537 413.588 C 399.444 424.540, 408.246 436.875, 411.098 441 L 416.284 448.500 415.642 439.830 C 414.841 429.007, 409.790 398.702, 405.922 381.515 C 404.315 374.373, 403 368.186, 403 367.765 C 403 365.846, 401.027 367.363, 398.466 371.250 M 199.672 370.722 C 198.656 372.365, 192.008 404.895, 189.595 420.027 C 186.366 440.272, 185.576 448, 186.735 448 C 187.247 448, 187.674 447.438, 187.684 446.750 C 187.694 446.063, 195.869 434.188, 205.851 420.363 C 215.833 406.537, 224 394.828, 224 394.343 C 224 393.858, 221.713 391.669, 218.917 389.480 C 216.121 387.291, 211.112 382.125, 207.785 378 C 201.503 370.210, 200.528 369.336, 199.672 370.722 M 117 622.063 C 79.174 624.891, 47.841 644.696, 39.087 671.310 C 33.158 689.339, 34.105 705.825, 42.030 722.500 C 58.529 757.218, 110.087 774.459, 160.024 761.956 C 197.469 752.582, 220 726.865, 220 693.500 C 220 674.673, 214.477 661.433, 201.018 647.996 C 194.128 641.117, 190.588 638.501, 182.500 634.312 C 163.357 624.398, 141.198 620.254, 117 622.063 M 328.500 622.094 C 291.969 624.437, 261.088 639.845, 247.521 662.500 C 236.256 681.310, 236.547 707.455, 248.234 726.739 C 252.168 733.229, 261.501 742.656, 269 747.711 C 279.312 754.662, 294.074 760.203, 311.500 763.662 C 324.135 766.170, 355.802 766.177, 368.500 763.675 C 379.828 761.443, 388.906 758.961, 389.549 757.921 C 389.821 757.480, 387.949 751.884, 385.388 745.485 C 381.229 735.092, 380.506 733.907, 378.616 734.379 C 370.399 736.434, 359.790 737.183, 345.500 736.720 C 327.792 736.146, 321.650 734.894, 310.314 729.548 C 300.903 725.110, 294.799 719.368, 290.750 711.144 C 287.706 704.961, 287.500 703.873, 287.500 694 C 287.500 684.107, 287.702 683.048, 290.781 676.794 C 296.406 665.367, 308.417 656.770, 325 652.302 C 332.127 650.382, 360.492 649.767, 371 651.305 L 376.500 652.110 382.708 642.246 C 390.995 629.080, 390.880 629.569, 386.112 627.661 C 374.527 623.026, 350.372 620.692, 328.500 622.094 M 462.500 622.047 C 446.741 623.025, 424.505 626.937, 417.243 630.009 L 414.986 630.964 415.243 697.232 L 415.500 763.500 438.750 763.768 L 462 764.037 462 706.649 L 462 649.262 465.750 648.642 C 480.944 646.131, 500.151 650.199, 510.027 658.021 C 522.091 667.576, 522.564 689.933, 510.926 700.448 C 503.724 706.954, 492.356 710.955, 480.981 710.985 L 475.462 711 471.092 720.527 C 468.688 725.767, 467.047 730.380, 467.445 730.777 C 468.713 732.044, 503.098 731.523, 509.500 730.140 C 539.345 723.691, 557.181 711.635, 564.450 693 C 566.816 686.934, 567.581 674.631, 566.012 667.890 C 560.324 643.454, 531.646 625.271, 494.483 622.539 C 478.739 621.381, 474.329 621.313, 462.500 622.047 M 322.230 626.037 C 311.654 627.365, 297.597 630.821, 289 634.207 C 280.501 637.553, 271 642.723, 271 644.001 C 271 645.543, 283.330 652.393, 291.951 655.639 L 300.401 658.821 308.229 654.885 C 320.393 648.769, 330.649 646.651, 348.500 646.569 C 356.750 646.531, 365.976 646.828, 369.002 647.230 L 374.503 647.959 379.811 639.730 L 385.119 631.500 381.996 630.221 C 372.034 626.142, 339.520 623.866, 322.230 626.037 M 115 648.747 C 106.597 651.031, 100.557 654.628, 94.808 660.774 C 86.633 669.514, 82.991 679.604, 83.012 693.460 C 83.032 707.070, 86.771 717.305, 95.017 726.329 C 113.335 746.371, 149.079 744.024, 164.339 721.777 C 178.814 700.673, 174.030 668.437, 154.420 654.945 C 144.279 647.968, 127.545 645.337, 115 648.747" stroke="none" fill="#4ba435" fill-rule="evenodd"/></svg>